<svg width="640" height="240" viewBox="0 0 640 240" fill="none" xmlns="http://www.w3.org/2000/svg">
<g clip-path="url(#clip0_21_573)">
<rect width="640" height="240" fill="#FAAF18"/>
<g opacity="0.8">
<g clip-path="url(#clip1_21_573)">
<g clip-path="url(#clip2_21_573)">
<rect x="31.3601" width="0.64" height="320" fill="#FFF8E9" fill-opacity="0.4"/>
<rect x="63.3601" width="0.64" height="320" fill="#FFF8E9" fill-opacity="0.4"/>
<rect x="95.3601" width="0.64" height="320" fill="#FFF8E9" fill-opacity="0.4"/>
<rect x="127.36" width="0.64" height="320" fill="#FFF8E9" fill-opacity="0.4"/>
<rect x="159.36" width="0.64" height="320" fill="#FFF8E9" fill-opacity="0.4"/>
<rect x="191.36" width="0.64" height="320" fill="#FFF8E9" fill-opacity="0.4"/>
<rect x="223.36" width="0.64" height="320" fill="#FFF8E9" fill-opacity="0.4"/>
<rect x="255.36" width="0.64" height="320" fill="#FFF8E9" fill-opacity="0.4"/>
<rect x="287.36" width="0.64" height="320" fill="#FFF8E9" fill-opacity="0.4"/>
<rect x="319.36" width="0.64" height="320" fill="#FFF8E9" fill-opacity="0.4"/>
<rect x="351.36" width="0.64" height="320" fill="#FFF8E9" fill-opacity="0.4"/>
<rect x="383.36" width="0.64" height="320" fill="#FFF8E9" fill-opacity="0.4"/>
<rect x="415.36" width="0.64" height="320" fill="#FFF8E9" fill-opacity="0.4"/>
<rect x="447.36" width="0.64" height="320" fill="#FFF8E9" fill-opacity="0.4"/>
<rect x="479.36" width="0.64" height="320" fill="#FFF8E9" fill-opacity="0.4"/>
<rect x="511.36" width="0.64" height="320" fill="#FFF8E9" fill-opacity="0.4"/>
<rect x="543.36" width="0.64" height="320" fill="#FFF8E9" fill-opacity="0.4"/>
<rect x="575.36" width="0.64" height="320" fill="#FFF8E9" fill-opacity="0.4"/>
<rect x="607.36" width="0.64" height="320" fill="#FFF8E9" fill-opacity="0.4"/>
<rect y="31.36" width="640" height="0.64" fill="#FFF8E9" fill-opacity="0.4"/>
<rect y="63.36" width="640" height="0.64" fill="#FFF8E9" fill-opacity="0.4"/>
<rect y="95.36" width="640" height="0.64" fill="#FFF8E9" fill-opacity="0.4"/>
<rect y="127.36" width="640" height="0.64" fill="#FFF8E9" fill-opacity="0.4"/>
<rect y="159.36" width="640" height="0.64" fill="#FFF8E9" fill-opacity="0.4"/>
<rect y="191.36" width="640" height="0.64" fill="#FFF8E9" fill-opacity="0.4"/>
<rect y="223.36" width="640" height="0.64" fill="#FFF8E9" fill-opacity="0.4"/>
</g>
<g clip-path="url(#clip3_21_573)">
<rect width="31.36" height="31.36" fill="#FFD88A" fill-opacity="0.654711"/>
<rect x="32" width="31.36" height="31.36" fill="#FFD88A" fill-opacity="0.849685"/>
<rect x="64" width="31.36" height="31.36" fill="#FFD88A" fill-opacity="0.897264"/>
<rect x="160" width="31.36" height="31.36" fill="#FFD88A" fill-opacity="0.5686"/>
<rect x="224" width="31.36" height="31.36" fill="#FFD88A" fill-opacity="0.9291"/>
<rect x="288" width="31.36" height="31.36" fill="#FFD88A" fill-opacity="0.545472"/>
<rect x="384" width="31.36" height="31.36" fill="#FFD88A" fill-opacity="0.631972"/>
<rect x="480" width="31.36" height="31.36" fill="#FFD88A" fill-opacity="0.869158"/>
<rect y="32" width="31.36" height="31.36" fill="#FFD88A" fill-opacity="0.499761"/>
<rect x="32" y="32" width="31.36" height="31.36" fill="#FFD88A" fill-opacity="0.578264"/>
<rect x="128" y="32" width="31.36" height="31.36" fill="#FFD88A" fill-opacity="0.352407"/>
<rect x="160" y="32" width="31.36" height="31.36" fill="#FFD88A" fill-opacity="0.429925"/>
<rect x="192" y="32" width="31.36" height="31.36" fill="#FFD88A" fill-opacity="0.77437"/>
<rect x="256" y="32" width="31.36" height="31.36" fill="#FFD88A" fill-opacity="0.719202"/>
<rect x="288" y="32" width="31.36" height="31.36" fill="#FFD88A" fill-opacity="0.547125"/>
<rect x="416" y="32" width="31.36" height="31.36" fill="#FFD88A" fill-opacity="0.521158"/>
<rect x="448" y="32" width="31.36" height="31.36" fill="#FFD88A" fill-opacity="0.4436"/>
<rect y="64" width="31.36" height="31.36" fill="#FFD88A" fill-opacity="0.210722"/>
<rect x="32" y="64" width="31.36" height="31.36" fill="#FFD88A" fill-opacity="0.210073"/>
<rect x="96" y="64" width="31.36" height="31.36" fill="#FFD88A" fill-opacity="0.776038"/>
<rect x="160" y="64" width="31.36" height="31.36" fill="#FFD88A" fill-opacity="0.305956"/>
<rect x="224" y="64" width="31.36" height="31.36" fill="#FFD88A" fill-opacity="0.44893"/>
<rect x="320" y="64" width="31.36" height="31.36" fill="#FFD88A" fill-opacity="0.446102"/>
<rect x="384" y="64" width="31.36" height="31.36" fill="#FFD88A" fill-opacity="0.396018"/>
<rect x="480" y="64" width="31.36" height="31.36" fill="#FFD88A" fill-opacity="0.374934"/>
<rect x="544" y="64" width="31.36" height="31.36" fill="#FFD88A" fill-opacity="0.243065"/>
<rect x="608" y="64" width="32" height="31.36" fill="#FFD88A" fill-opacity="0.584742"/>
<rect x="128" y="96" width="31.36" height="31.36" fill="#FFD88A" fill-opacity="0.248849"/>
<rect x="160" y="96" width="31.36" height="31.36" fill="#FFD88A" fill-opacity="0.279005"/>
<rect x="256" y="96" width="31.36" height="31.36" fill="#FFD88A" fill-opacity="0.833479"/>
<rect x="288" y="96" width="31.36" height="31.36" fill="#FFD88A" fill-opacity="0.809257"/>
<rect x="416" y="96" width="31.36" height="31.36" fill="#FFD88A" fill-opacity="0.27374"/>
<rect x="512" y="96" width="31.36" height="31.36" fill="#FFD88A" fill-opacity="0.786552"/>
<rect x="544" y="96" width="31.36" height="31.36" fill="#FFD88A" fill-opacity="0.854294"/>
<rect y="128" width="31.36" height="31.36" fill="#FFD88A" fill-opacity="0.890033"/>
<rect x="96" y="128" width="31.36" height="31.36" fill="#FFD88A" fill-opacity="0.481083"/>
<rect x="128" y="128" width="31.36" height="31.36" fill="#FFD88A" fill-opacity="0.715352"/>
<rect x="256" y="128" width="31.36" height="31.36" fill="#FFD88A" fill-opacity="0.364574"/>
<rect x="288" y="128" width="31.36" height="31.36" fill="#FFD88A" fill-opacity="0.24119"/>
<rect x="480" y="128" width="31.36" height="31.36" fill="#FFD88A" fill-opacity="0.446225"/>
<rect x="512" y="128" width="31.36" height="31.36" fill="#FFD88A" fill-opacity="0.983065"/>
<rect x="544" y="128" width="31.36" height="31.36" fill="#FFD88A" fill-opacity="0.20087"/>
<rect x="96" y="160" width="31.36" height="31.36" fill="#FFD88A" fill-opacity="0.717684"/>
<rect x="128" y="160" width="31.36" height="31.36" fill="#FFD88A" fill-opacity="0.255533"/>
<rect x="192" y="160" width="31.36" height="31.36" fill="#FFD88A" fill-opacity="0.350649"/>
<rect x="224" y="160" width="31.36" height="31.36" fill="#FFD88A" fill-opacity="0.598453"/>
<rect x="256" y="160" width="31.36" height="31.36" fill="#FFD88A" fill-opacity="0.773807"/>
<rect x="288" y="160" width="31.36" height="31.36" fill="#FFD88A" fill-opacity="0.227242"/>
<rect x="448" y="160" width="31.36" height="31.36" fill="#FFD88A" fill-opacity="0.852879"/>
<rect x="512" y="160" width="31.36" height="31.36" fill="#FFD88A" fill-opacity="0.938937"/>
<rect x="544" y="160" width="31.36" height="31.36" fill="#FFD88A" fill-opacity="0.951632"/>
<rect x="608" y="160" width="32" height="31.36" fill="#FFD88A" fill-opacity="0.338114"/>
<rect x="32" y="192" width="31.36" height="31.36" fill="#FFD88A" fill-opacity="0.399598"/>
<rect x="64" y="192" width="31.36" height="31.36" fill="#FFD88A" fill-opacity="0.952289"/>
<rect x="96" y="192" width="31.36" height="31.36" fill="#FFD88A" fill-opacity="0.568661"/>
<rect x="128" y="192" width="31.36" height="31.36" fill="#FFD88A" fill-opacity="0.721896"/>
<rect x="192" y="192" width="31.36" height="31.36" fill="#FFD88A" fill-opacity="0.933966"/>
<rect x="224" y="192" width="31.36" height="31.36" fill="#FFD88A" fill-opacity="0.99878"/>
<rect x="256" y="192" width="31.36" height="31.36" fill="#FFD88A" fill-opacity="0.988871"/>
<rect x="288" y="192" width="31.36" height="31.36" fill="#FFD88A" fill-opacity="0.455851"/>
<rect x="416" y="192" width="31.36" height="31.36" fill="#FFD88A" fill-opacity="0.728347"/>
<rect x="448" y="192" width="31.36" height="31.36" fill="#FFD88A" fill-opacity="0.376038"/>
<rect x="576" y="192" width="31.36" height="31.36" fill="#FFD88A" fill-opacity="0.406901"/>
<rect x="32" y="224" width="31.36" height="31.36" fill="#FFD88A" fill-opacity="0.376758"/>
<rect x="96" y="224" width="31.36" height="31.36" fill="#FFD88A" fill-opacity="0.273517"/>
<rect x="160" y="224" width="31.36" height="31.36" fill="#FFD88A" fill-opacity="0.74257"/>
<rect x="288" y="224" width="31.36" height="31.36" fill="#FFD88A" fill-opacity="0.475131"/>
<rect x="416" y="224" width="31.36" height="31.36" fill="#FFD88A" fill-opacity="0.286206"/>
<rect x="448" y="224" width="31.36" height="31.36" fill="#FFD88A" fill-opacity="0.605983"/>
<rect x="576" y="224" width="31.36" height="31.36" fill="#FFD88A" fill-opacity="0.233425"/>
</g>
</g>
</g>
<path d="M321.664 79.88C317.44 93.416 306.208 102.152 291.424 102.152C273.28 102.152 259.168 86.888 259.168 67.4C259.168 47.912 273.28 32.648 291.424 32.648C306.496 32.648 317.632 41.192 321.76 54.824H308.032C305.056 48.776 299.104 44.264 291.424 44.264C280.48 44.264 271.84 54.824 271.84 67.4C271.84 80.072 280.48 90.632 291.424 90.632C299.008 90.632 305.056 85.928 308.032 79.88H321.664ZM357.377 50.6V62.504C349.313 61.064 343.937 65.384 343.937 72.392V101H331.265V72.392C331.265 58.376 340.961 48.584 357.377 50.6ZM388.084 50.312C401.812 50.312 413.044 61.544 413.044 76.328C413.044 91.112 401.812 102.152 388.084 102.152C374.356 102.152 363.22 91.112 363.22 76.328C363.22 61.544 374.356 50.312 388.084 50.312ZM388.084 90.536C394.804 90.536 400.276 84.776 400.276 76.424C400.276 67.88 394.804 61.928 388.084 61.928C381.364 61.928 375.892 67.88 375.892 76.424C375.892 84.776 381.364 90.536 388.084 90.536ZM467.486 80.072C467.486 92.648 458.654 102.152 445.214 102.152C431.39 102.152 423.23 93.032 423.23 80.072V51.56H435.902V80.456C435.902 83.24 436.862 89.864 445.214 89.864C450.782 89.864 454.814 85.928 454.814 80.456V51.56H467.486V80.072ZM522.325 85.448C522.325 95.24 513.301 102.152 500.629 102.152C488.053 102.152 478.741 95.528 477.205 84.872H490.069C491.797 89.096 496.885 90.632 500.629 90.632C505.717 90.632 509.557 89.096 509.557 86.216C509.557 83.432 507.829 82.28 499.189 80.936C490.357 79.592 478.549 77.192 478.549 66.152C478.549 58.376 485.365 50.312 499.669 50.312C510.997 50.312 519.445 56.456 521.077 65.768H507.925C507.157 63.464 504.373 61.64 499.669 61.64C493.813 61.64 491.413 63.752 491.413 65.576C491.413 68.168 495.061 69.032 501.205 69.992C513.493 72.008 522.325 74.696 522.325 85.448ZM554.52 89.384V100.904C540.024 102.44 532.344 93.704 532.344 80.168V38.984H545.016V51.56H553.944V62.792H545.016V80.264C545.016 87.176 548.184 89.768 554.52 89.384ZM586.545 50.312C600.273 50.312 611.505 61.544 611.505 76.328C611.505 91.112 600.273 102.152 586.545 102.152C572.817 102.152 561.681 91.112 561.681 76.328C561.681 61.544 572.817 50.312 586.545 50.312ZM586.545 90.536C593.265 90.536 598.737 84.776 598.737 76.424C598.737 67.88 593.265 61.928 586.545 61.928C579.825 61.928 574.353 67.88 574.353 76.424C574.353 84.776 579.825 90.536 586.545 90.536Z" fill="white"/>
<path d="M261.736 131.488C261.736 133.008 262.008 134.096 262.552 134.752C263.112 135.408 263.92 135.736 264.976 135.736C266.048 135.736 266.92 135.336 267.592 134.536C268.264 133.72 268.6 132.6 268.6 131.176V122.224H272.344V139H268.6V137.464C268.488 137.592 268.32 137.752 268.096 137.944C267.888 138.136 267.432 138.392 266.728 138.712C266.04 139.032 265.336 139.192 264.616 139.192C262.728 139.192 261.152 138.56 259.888 137.296C258.624 136.016 257.992 134.232 257.992 131.944V122.224H261.736V131.488ZM280.323 131.8V139H276.723V126.088H280.323V127.528C281.411 126.424 282.635 125.872 283.995 125.872C285.355 125.872 286.491 126.352 287.403 127.312C288.331 128.272 288.795 129.552 288.795 131.152V139H285.195V131.704C285.195 129.72 284.467 128.728 283.011 128.728C282.291 128.728 281.659 128.992 281.115 129.52C280.587 130.032 280.323 130.792 280.323 131.8ZM296.131 139H292.531V126.088H296.131V139ZM292.819 124.456C292.419 124.04 292.219 123.536 292.219 122.944C292.219 122.352 292.419 121.856 292.819 121.456C293.235 121.04 293.739 120.832 294.331 120.832C294.923 120.832 295.419 121.04 295.819 121.456C296.235 121.856 296.443 122.352 296.443 122.944C296.443 123.536 296.235 124.04 295.819 124.456C295.419 124.856 294.923 125.056 294.331 125.056C293.739 125.056 293.235 124.856 292.819 124.456ZM303.499 139L298.387 126.064H302.131L305.347 134.2L308.563 126.064H312.307L307.195 139H303.499ZM320.657 136.24C321.345 136.24 322.009 136.072 322.649 135.736C323.305 135.384 323.825 134.92 324.209 134.344L326.273 136.576C324.625 138.32 322.761 139.192 320.681 139.192C318.617 139.192 316.969 138.56 315.737 137.296C314.505 136.032 313.889 134.424 313.889 132.472C313.889 130.504 314.561 128.912 315.905 127.696C317.265 126.48 318.825 125.872 320.585 125.872C322.345 125.872 323.817 126.368 325.001 127.36C326.185 128.352 326.825 129.632 326.921 131.2V131.656L318.329 135.208C318.873 135.896 319.649 136.24 320.657 136.24ZM320.777 128.992C319.897 128.992 319.113 129.28 318.425 129.856C317.753 130.432 317.417 131.232 317.417 132.256C317.417 132.448 317.425 132.592 317.441 132.688L323.057 130.408C322.849 129.464 322.089 128.992 320.777 128.992ZM336.763 129.256C335.691 129.256 334.891 129.64 334.363 130.408C333.835 131.16 333.571 132.16 333.571 133.408V139H329.971V126.088H333.571V127.792C334.035 127.264 334.611 126.816 335.299 126.448C336.003 126.08 336.715 125.888 337.435 125.872L337.459 129.256H336.763ZM349.945 134.992C349.945 136.256 349.473 137.272 348.529 138.04C347.601 138.808 346.417 139.192 344.977 139.192C344.017 139.192 343.017 139.024 341.977 138.688C340.937 138.336 340.001 137.824 339.169 137.152L340.753 134.896C342.097 135.936 343.529 136.456 345.049 136.456C345.513 136.456 345.881 136.368 346.153 136.192C346.425 136 346.561 135.752 346.561 135.448C346.561 135.144 346.369 134.864 345.985 134.608C345.617 134.352 345.073 134.112 344.353 133.888C343.649 133.664 343.105 133.472 342.721 133.312C342.353 133.152 341.929 132.92 341.449 132.616C340.473 132.008 339.985 131.112 339.985 129.928C339.985 128.728 340.465 127.752 341.425 127C342.385 126.248 343.625 125.872 345.145 125.872C346.665 125.872 348.185 126.384 349.705 127.408L348.361 129.808C347.241 129.04 346.121 128.656 345.001 128.656C343.897 128.656 343.345 128.96 343.345 129.568C343.345 129.904 343.521 130.168 343.873 130.36C344.225 130.552 344.809 130.776 345.625 131.032C346.441 131.288 347.017 131.488 347.353 131.632C347.705 131.76 348.121 131.968 348.601 132.256C349.497 132.8 349.945 133.712 349.945 134.992ZM356.773 139H353.173V126.088H356.773V139ZM353.461 124.456C353.061 124.04 352.861 123.536 352.861 122.944C352.861 122.352 353.061 121.856 353.461 121.456C353.877 121.04 354.381 120.832 354.973 120.832C355.565 120.832 356.061 121.04 356.461 121.456C356.877 121.856 357.085 122.352 357.085 122.944C357.085 123.536 356.877 124.04 356.461 124.456C356.061 124.856 355.565 125.056 354.973 125.056C354.381 125.056 353.877 124.856 353.461 124.456ZM364.285 122.224V126.088H367.405V128.896H364.285V134.464C364.285 134.96 364.413 135.352 364.669 135.64C364.925 135.912 365.229 136.048 365.581 136.048C366.253 136.048 366.821 135.744 367.285 135.136L368.629 137.656C367.509 138.68 366.325 139.192 365.077 139.192C363.845 139.192 362.797 138.784 361.933 137.968C361.085 137.152 360.661 136.04 360.661 134.632V122.224H364.285ZM376.193 138.04C372.721 138.04 370.985 136.184 370.985 132.472V126.088H374.609V131.32C374.609 132.6 374.777 133.504 375.113 134.032C375.465 134.56 376.057 134.824 376.889 134.824C377.737 134.824 378.377 134.576 378.809 134.08C379.241 133.568 379.457 132.848 379.457 131.92V126.064H383.081V136.912C383.081 139.168 382.481 140.928 381.281 142.192C380.097 143.456 378.569 144.088 376.697 144.088C375.241 144.088 373.961 143.72 372.857 142.984C371.769 142.248 370.961 141.192 370.433 139.816L373.529 138.472C374.153 140.168 375.193 141.016 376.649 141.016C377.561 141.016 378.289 140.672 378.833 139.984C379.377 139.312 379.649 138.456 379.649 137.416C379.649 137.272 379.641 137.128 379.625 136.984C378.617 137.688 377.473 138.04 376.193 138.04ZM396.833 132.544C396.833 133.6 397.129 134.464 397.721 135.136C398.329 135.792 399.097 136.12 400.025 136.12C400.969 136.12 401.737 135.792 402.329 135.136C402.937 134.464 403.241 133.6 403.241 132.544C403.241 131.488 402.937 130.624 402.329 129.952C401.737 129.28 400.969 128.944 400.025 128.944C399.097 128.944 398.329 129.28 397.721 129.952C397.129 130.624 396.833 131.488 396.833 132.544ZM406.865 132.544C406.865 134.416 406.217 135.992 404.921 137.272C403.625 138.552 401.993 139.192 400.025 139.192C398.073 139.192 396.449 138.552 395.153 137.272C393.857 135.992 393.209 134.416 393.209 132.544C393.209 130.672 393.857 129.096 395.153 127.816C396.449 126.52 398.073 125.872 400.025 125.872C401.993 125.872 403.625 126.52 404.921 127.816C406.217 129.096 406.865 130.672 406.865 132.544ZM413.552 126.808V128.392H416.672V131.296H413.552V139H409.928V126.64C409.928 125.072 410.416 123.88 411.392 123.064C412.384 122.248 413.568 121.84 414.944 121.84C416.32 121.84 417.536 122.352 418.592 123.376L417.248 125.896C416.8 125.272 416.168 124.96 415.352 124.96C414.84 124.96 414.408 125.12 414.056 125.44C413.72 125.744 413.552 126.2 413.552 126.808ZM427.464 139V122.224H431.208V135.664H438.36V139H427.464ZM443.94 132.544C443.94 133.6 444.236 134.464 444.828 135.136C445.436 135.792 446.204 136.12 447.132 136.12C448.076 136.12 448.844 135.792 449.436 135.136C450.044 134.464 450.348 133.6 450.348 132.544C450.348 131.488 450.044 130.624 449.436 129.952C448.844 129.28 448.076 128.944 447.132 128.944C446.204 128.944 445.436 129.28 444.828 129.952C444.236 130.624 443.94 131.488 443.94 132.544ZM453.972 132.544C453.972 134.416 453.324 135.992 452.028 137.272C450.732 138.552 449.1 139.192 447.132 139.192C445.18 139.192 443.556 138.552 442.26 137.272C440.964 135.992 440.316 134.416 440.316 132.544C440.316 130.672 440.964 129.096 442.26 127.816C443.556 126.52 445.18 125.872 447.132 125.872C449.1 125.872 450.732 126.52 452.028 127.816C453.324 129.096 453.972 130.672 453.972 132.544ZM463.918 129.256C462.846 129.256 462.046 129.64 461.518 130.408C460.99 131.16 460.726 132.16 460.726 133.408V139H457.126V126.088H460.726V127.792C461.19 127.264 461.766 126.816 462.454 126.448C463.158 126.08 463.87 125.888 464.59 125.872L464.614 129.256H463.918ZM474.265 129.256C473.193 129.256 472.393 129.64 471.865 130.408C471.337 131.16 471.073 132.16 471.073 133.408V139H467.473V126.088H471.073V127.792C471.537 127.264 472.113 126.816 472.801 126.448C473.505 126.08 474.217 125.888 474.937 125.872L474.961 129.256H474.265ZM483.223 139.192C481.575 139.192 480.135 138.576 478.903 137.344C477.671 136.112 477.055 134.496 477.055 132.496C477.055 130.48 477.687 128.872 478.951 127.672C480.215 126.472 481.679 125.872 483.343 125.872C484.639 125.872 485.767 126.304 486.727 127.168V126.088H490.351V139H486.727V137.944C485.703 138.776 484.535 139.192 483.223 139.192ZM480.679 132.568C480.679 133.624 480.991 134.488 481.615 135.16C482.239 135.816 482.967 136.144 483.799 136.144C484.631 136.144 485.335 135.816 485.911 135.16C486.487 134.488 486.775 133.632 486.775 132.592C486.775 131.536 486.487 130.656 485.911 129.952C485.335 129.248 484.623 128.896 483.775 128.896C482.927 128.896 482.199 129.248 481.591 129.952C480.983 130.64 480.679 131.512 480.679 132.568ZM497.955 139H494.355V126.088H497.955V139ZM494.643 124.456C494.243 124.04 494.043 123.536 494.043 122.944C494.043 122.352 494.243 121.856 494.643 121.456C495.059 121.04 495.563 120.832 496.155 120.832C496.747 120.832 497.243 121.04 497.643 121.456C498.059 121.856 498.267 122.352 498.267 122.944C498.267 123.536 498.059 124.04 497.643 124.456C497.243 124.856 496.747 125.056 496.155 125.056C495.563 125.056 495.059 124.856 494.643 124.456ZM505.443 131.8V139H501.843V126.088H505.443V127.528C506.531 126.424 507.755 125.872 509.115 125.872C510.475 125.872 511.611 126.352 512.523 127.312C513.451 128.272 513.915 129.552 513.915 131.152V139H510.315V131.704C510.315 129.72 509.587 128.728 508.131 128.728C507.411 128.728 506.779 128.992 506.235 129.52C505.707 130.032 505.443 130.792 505.443 131.8ZM523.747 136.24C524.435 136.24 525.099 136.072 525.739 135.736C526.395 135.384 526.915 134.92 527.299 134.344L529.363 136.576C527.715 138.32 525.851 139.192 523.771 139.192C521.707 139.192 520.059 138.56 518.827 137.296C517.595 136.032 516.979 134.424 516.979 132.472C516.979 130.504 517.651 128.912 518.995 127.696C520.355 126.48 521.915 125.872 523.675 125.872C525.435 125.872 526.907 126.368 528.091 127.36C529.275 128.352 529.915 129.632 530.011 131.2V131.656L521.419 135.208C521.963 135.896 522.739 136.24 523.747 136.24ZM523.867 128.992C522.987 128.992 522.203 129.28 521.515 129.856C520.843 130.432 520.507 131.232 520.507 132.256C520.507 132.448 520.515 132.592 520.531 132.688L526.147 130.408C525.939 129.464 525.179 128.992 523.867 128.992ZM547.933 135.688C549.773 135.688 551.277 134.96 552.445 133.504L554.845 135.976C552.941 138.12 550.693 139.192 548.101 139.192C545.525 139.192 543.397 138.376 541.717 136.744C540.053 135.112 539.221 133.056 539.221 130.576C539.221 128.08 540.069 126 541.765 124.336C543.477 122.672 545.565 121.84 548.029 121.84C550.781 121.84 553.085 122.888 554.941 124.984L552.613 127.624C551.429 126.152 549.957 125.416 548.197 125.416C546.789 125.416 545.581 125.88 544.573 126.808C543.581 127.72 543.085 128.96 543.085 130.528C543.085 132.08 543.557 133.328 544.501 134.272C545.445 135.216 546.589 135.688 547.933 135.688ZM564.719 129.256C563.647 129.256 562.847 129.64 562.319 130.408C561.791 131.16 561.527 132.16 561.527 133.408V139H557.927V126.088H561.527V127.792C561.991 127.264 562.567 126.816 563.255 126.448C563.959 126.08 564.671 125.888 565.391 125.872L565.415 129.256H564.719ZM570.967 132.544C570.967 133.6 571.263 134.464 571.855 135.136C572.463 135.792 573.231 136.12 574.159 136.12C575.103 136.12 575.871 135.792 576.463 135.136C577.071 134.464 577.375 133.6 577.375 132.544C577.375 131.488 577.071 130.624 576.463 129.952C575.871 129.28 575.103 128.944 574.159 128.944C573.231 128.944 572.463 129.28 571.855 129.952C571.263 130.624 570.967 131.488 570.967 132.544ZM580.999 132.544C580.999 134.416 580.351 135.992 579.055 137.272C577.759 138.552 576.127 139.192 574.159 139.192C572.207 139.192 570.583 138.552 569.287 137.272C567.991 135.992 567.343 134.416 567.343 132.544C567.343 130.672 567.991 129.096 569.287 127.816C570.583 126.52 572.207 125.872 574.159 125.872C576.127 125.872 577.759 126.52 579.055 127.816C580.351 129.096 580.999 130.672 580.999 132.544ZM592.481 133.048V126.088H596.105V139H592.481V137.296C591.585 138.56 590.425 139.192 589.001 139.192C587.593 139.192 586.409 138.752 585.449 137.872C584.489 136.976 584.009 135.656 584.009 133.912V126.088H587.633V133.12C587.633 135.104 588.361 136.096 589.817 136.096C590.537 136.096 591.161 135.84 591.689 135.328C592.217 134.8 592.481 134.04 592.481 133.048ZM609.704 134.992C609.704 136.256 609.232 137.272 608.288 138.04C607.36 138.808 606.176 139.192 604.736 139.192C603.776 139.192 602.776 139.024 601.736 138.688C600.696 138.336 599.76 137.824 598.928 137.152L600.512 134.896C601.856 135.936 603.288 136.456 604.808 136.456C605.272 136.456 605.64 136.368 605.912 136.192C606.184 136 606.32 135.752 606.32 135.448C606.32 135.144 606.128 134.864 605.744 134.608C605.376 134.352 604.832 134.112 604.112 133.888C603.408 133.664 602.864 133.472 602.48 133.312C602.112 133.152 601.688 132.92 601.208 132.616C600.232 132.008 599.744 131.112 599.744 129.928C599.744 128.728 600.224 127.752 601.184 127C602.144 126.248 603.384 125.872 604.904 125.872C606.424 125.872 607.944 126.384 609.464 127.408L608.12 129.808C607 129.04 605.88 128.656 604.76 128.656C603.656 128.656 603.104 128.96 603.104 129.568C603.104 129.904 603.28 130.168 603.632 130.36C603.984 130.552 604.568 130.776 605.384 131.032C606.2 131.288 606.776 131.488 607.112 131.632C607.464 131.76 607.88 131.968 608.36 132.256C609.256 132.8 609.704 133.712 609.704 134.992ZM269.56 161.04V168H265.936V160.944C265.936 159.92 265.776 159.168 265.456 158.688C265.152 158.208 264.648 157.968 263.944 157.968C263.256 157.968 262.64 158.232 262.096 158.76C261.568 159.272 261.304 160.032 261.304 161.04V168H257.704V155.088H261.304V156.552C262.296 155.432 263.432 154.872 264.712 154.872C265.528 154.872 266.264 155.112 266.92 155.592C267.592 156.072 268.096 156.656 268.432 157.344C268.928 156.56 269.592 155.952 270.424 155.52C271.272 155.088 272.12 154.872 272.968 154.872C274.488 154.872 275.712 155.328 276.64 156.24C277.568 157.136 278.032 158.44 278.032 160.152V168H274.408V160.944C274.408 158.96 273.68 157.968 272.224 157.968C271.504 157.968 270.88 158.232 270.352 158.76C269.824 159.272 269.56 160.032 269.56 161.04ZM287.882 165.24C288.57 165.24 289.234 165.072 289.874 164.736C290.53 164.384 291.05 163.92 291.434 163.344L293.498 165.576C291.85 167.32 289.986 168.192 287.906 168.192C285.842 168.192 284.194 167.56 282.962 166.296C281.73 165.032 281.114 163.424 281.114 161.472C281.114 159.504 281.786 157.912 283.13 156.696C284.49 155.48 286.05 154.872 287.81 154.872C289.57 154.872 291.042 155.368 292.226 156.36C293.41 157.352 294.05 158.632 294.146 160.2V160.656L285.554 164.208C286.098 164.896 286.874 165.24 287.882 165.24ZM288.002 157.992C287.122 157.992 286.338 158.28 285.65 158.856C284.978 159.432 284.642 160.232 284.642 161.256C284.642 161.448 284.65 161.592 284.666 161.688L290.282 159.408C290.074 158.464 289.314 157.992 288.002 157.992ZM300.795 160.8V168H297.195V155.088H300.795V156.528C301.883 155.424 303.107 154.872 304.467 154.872C305.827 154.872 306.963 155.352 307.875 156.312C308.803 157.272 309.267 158.552 309.267 160.152V168H305.667V160.704C305.667 158.72 304.939 157.728 303.483 157.728C302.763 157.728 302.131 157.992 301.587 158.52C301.059 159.032 300.795 159.792 300.795 160.8ZM321.331 162.048V155.088H324.955V168H321.331V166.296C320.435 167.56 319.275 168.192 317.851 168.192C316.443 168.192 315.259 167.752 314.299 166.872C313.339 165.976 312.859 164.656 312.859 162.912V155.088H316.483V162.12C316.483 164.104 317.211 165.096 318.667 165.096C319.387 165.096 320.011 164.84 320.539 164.328C321.067 163.8 321.331 163.04 321.331 162.048ZM345.363 163.992C345.363 165.256 344.891 166.272 343.947 167.04C343.019 167.808 341.835 168.192 340.395 168.192C339.435 168.192 338.435 168.024 337.395 167.688C336.355 167.336 335.419 166.824 334.587 166.152L336.171 163.896C337.515 164.936 338.947 165.456 340.467 165.456C340.931 165.456 341.299 165.368 341.571 165.192C341.843 165 341.979 164.752 341.979 164.448C341.979 164.144 341.787 163.864 341.403 163.608C341.035 163.352 340.491 163.112 339.771 162.888C339.067 162.664 338.523 162.472 338.139 162.312C337.771 162.152 337.347 161.92 336.867 161.616C335.891 161.008 335.403 160.112 335.403 158.928C335.403 157.728 335.883 156.752 336.843 156C337.803 155.248 339.043 154.872 340.563 154.872C342.083 154.872 343.603 155.384 345.123 156.408L343.779 158.808C342.659 158.04 341.539 157.656 340.419 157.656C339.315 157.656 338.763 157.96 338.763 158.568C338.763 158.904 338.939 159.168 339.291 159.36C339.643 159.552 340.227 159.776 341.043 160.032C341.859 160.288 342.435 160.488 342.771 160.632C343.123 160.76 343.539 160.968 344.019 161.256C344.915 161.8 345.363 162.712 345.363 163.992ZM354.688 165.24C355.376 165.24 356.04 165.072 356.68 164.736C357.336 164.384 357.856 163.92 358.24 163.344L360.304 165.576C358.656 167.32 356.792 168.192 354.712 168.192C352.648 168.192 351 167.56 349.768 166.296C348.536 165.032 347.92 163.424 347.92 161.472C347.92 159.504 348.592 157.912 349.936 156.696C351.296 155.48 352.856 154.872 354.616 154.872C356.376 154.872 357.848 155.368 359.032 156.36C360.216 157.352 360.856 158.632 360.952 160.2V160.656L352.36 164.208C352.904 164.896 353.68 165.24 354.688 165.24ZM354.808 157.992C353.928 157.992 353.144 158.28 352.456 158.856C351.784 159.432 351.448 160.232 351.448 161.256C351.448 161.448 351.456 161.592 351.472 161.688L357.088 159.408C356.88 158.464 356.12 157.992 354.808 157.992ZM367.602 160.8V168H364.002V155.088H367.602V156.528C368.69 155.424 369.914 154.872 371.274 154.872C372.634 154.872 373.77 155.352 374.682 156.312C375.61 157.272 376.074 158.552 376.074 160.152V168H372.474V160.704C372.474 158.72 371.746 157.728 370.29 157.728C369.57 157.728 368.938 157.992 368.394 158.52C367.866 159.032 367.602 159.792 367.602 160.8ZM384.97 168.192C383.45 168.192 382.09 167.544 380.89 166.248C379.69 164.952 379.09 163.344 379.09 161.424C379.09 159.504 379.674 157.936 380.842 156.72C382.01 155.488 383.378 154.872 384.946 154.872C386.514 154.872 387.794 155.424 388.786 156.528V150.192H392.386V168H388.786V166.296C387.778 167.56 386.506 168.192 384.97 168.192ZM382.714 161.568C382.714 162.608 383.026 163.464 383.65 164.136C384.274 164.792 385.002 165.12 385.834 165.12C386.666 165.12 387.37 164.792 387.946 164.136C388.538 163.464 388.834 162.608 388.834 161.568C388.834 160.512 388.538 159.64 387.946 158.952C387.37 158.248 386.658 157.896 385.81 157.896C384.962 157.896 384.234 158.248 383.626 158.952C383.018 159.656 382.714 160.528 382.714 161.568ZM402.37 165.24C403.058 165.24 403.722 165.072 404.362 164.736C405.018 164.384 405.538 163.92 405.922 163.344L407.986 165.576C406.338 167.32 404.474 168.192 402.394 168.192C400.33 168.192 398.682 167.56 397.45 166.296C396.218 165.032 395.602 163.424 395.602 161.472C395.602 159.504 396.274 157.912 397.618 156.696C398.978 155.48 400.538 154.872 402.298 154.872C404.058 154.872 405.53 155.368 406.714 156.36C407.898 157.352 408.538 158.632 408.634 160.2V160.656L400.042 164.208C400.586 164.896 401.362 165.24 402.37 165.24ZM402.49 157.992C401.61 157.992 400.826 158.28 400.138 158.856C399.466 159.432 399.13 160.232 399.13 161.256C399.13 161.448 399.138 161.592 399.154 161.688L404.77 159.408C404.562 158.464 403.802 157.992 402.49 157.992ZM418.476 158.256C417.404 158.256 416.604 158.64 416.076 159.408C415.548 160.16 415.284 161.16 415.284 162.408V168H411.684V155.088H415.284V156.792C415.748 156.264 416.324 155.816 417.012 155.448C417.716 155.08 418.428 154.888 419.148 154.872L419.172 158.256H418.476Z" fill="white"/>
</g>
<defs>
<clipPath id="clip0_21_573">
<rect width="640" height="240" fill="white"/>
</clipPath>
<clipPath id="clip1_21_573">
<rect width="640" height="320" fill="white"/>
</clipPath>
<clipPath id="clip2_21_573">
<rect width="640" height="320" fill="white"/>
</clipPath>
<clipPath id="clip3_21_573">
<rect width="640" height="320" fill="white"/>
</clipPath>
</defs>
</svg>
